# xmcd
#
# Track frame offsets: 
#        150
#        16147
#        27682
#        40146
#        53481
#        67123
#        80451
#        93668
#        107466
#        117593
#        129428
#        143071
#        156411
#        169024
#        181448
#        195215
#        210228
#        222608
#        232176
#        247383
#        260490
#        271747
#        285419
#        297965
#        313035
#        325547
#
# Disc length: 4487 seconds
#
# Revision: 1
# Processed by: cddbd v1.5.2PL0 Copyright (c) Steve Scherf et al.
# Submitted via: ExactAudioCopy v0.95b4
#
DISCID=8011851a
DTITLE=Chet Baker - Complete 1953-1954 Studio Recordings [CD 1)
DYEAR=2004
DGENRE=Jazz
TTITLE0=Isn't It Romantic
TTITLE1=The Lamp Is Low
TTITLE2=This Time The Dream's On Me
TTITLE3=Maid In Mexico
TTITLE4=Imagination
TTITLE5=Russ Job
TTITLE6=Batter Up
TTITLE7=Easy To Love
TTITLE8=Long Ago And Far Away
TTITLE9=Carson City Stage
TTITLE10=No Ties
TTITLE11=All The Things You Are
TTITLE12=The Thrill Is Gone
TTITLE13=Band Aid
TTITLE14=Bea's Flat
TTITLE15=Moon Love
TTITLE16=Happy Little Sunbeam
TTITLE17=I Fall In Love Too Easily
TTITLE18=Winter Wonderland
TTITLE19=The Thrill Is Gone
TTITLE20=Long Ago And Far Away (alternate take)
TTITLE21=No Ties (alternate take)
TTITLE22=The Thrill Is Gone (alternate take)
TTITLE23=Moon Love (alternate take)
TTITLE24=Happy Little Sunbeam (alternate take)
TTITLE25=Winter Wonderland (alternate take)
EXTD=YEAR: 2004
EXTT0=
EXTT1=
EXTT2=
EXTT3=
EXTT4=
EXTT5=
EXTT6=
EXTT7=
EXTT8=
EXTT9=
EXTT10=
EXTT11=
EXTT12=
EXTT13=
EXTT14=
EXTT15=
EXTT16=
EXTT17=
EXTT18=
EXTT19=
EXTT20=
EXTT21=
EXTT22=
EXTT23=
EXTT24=
EXTT25=
PLAYORDER=
